<svg width="677" height="677" viewBox="0 0 677 677" fill="none" xmlns="http://www.w3.org/2000/svg">
<path d="M305.891 435.848C305.141 435.625 304.491 434.267 304.888 433.405L339.465 294.528C351.095 295.2 364.405 293.28 375.839 294.439C396.04 296.486 392.273 325.286 396.165 339.571C397.413 339.777 397.614 338.551 398.204 337.849C406.703 327.739 421.327 294.43 436.026 294.43H471.004L435.274 435.848H402.928C402.548 435.848 401.697 434.605 401.777 433.975L424.359 342.572L422.24 344.584L382.27 403.906C378.271 405.837 373.82 406.582 372.66 401.425C368.729 383.962 367.314 363.209 364.187 345.207C363.973 343.977 364.574 342.755 363.06 341.835L338.237 435.848H305.891Z" fill="#788998"/>
<path d="M510.495 435.848C509.946 435.68 509.322 434.648 509.344 433.976L543.574 295.163C544.124 294.321 544.986 294.495 545.811 294.391C552.877 293.502 573.263 293.619 580.454 294.428C587.866 295.261 593.942 301.497 595.666 308.552L606.024 372.657L627.09 294.43H658.683L625.256 434.766C624.381 435.993 623.129 435.767 621.867 435.89C614.284 436.632 593.742 436.845 586.436 435.882C585.368 435.741 584.505 435.724 583.767 434.789C578.099 407.718 575.104 380.112 570.095 352.929C569.629 350.399 568.898 345.766 568.126 343.613C567.743 342.546 568.34 342.349 566.543 342.571L542.841 435.848L510.495 435.848Z" fill="#788998"/>
<path d="M322.06 272.619C322.386 274.035 321.261 274.402 320.561 275.25C291.852 310.005 237.189 332.76 193.049 337.298C121.003 344.703 54.382 334.179 9.55606 278.593C8.68208 277.509 6.93404 274.453 6.12305 272.999C6.69025 271.865 7.94268 273.176 8.63545 273.496C41.5318 288.696 74.5299 300.316 110.532 306.247C183.311 318.234 256.25 304.137 322.06 272.619Z" fill="#D30164"/>
<path d="M490.184 294.43H523.282L488.68 435.848H455.582C455.203 435.848 454.351 434.605 454.431 433.975L488.506 297.265L490.184 294.43Z" fill="#788998"/>
<path d="M103.769 363.859C134.959 361.153 146.49 380.179 143.69 409.046C140.126 445.779 76.7437 446.194 73.1752 408.295C70.9801 384.981 77.9148 366.103 103.769 363.859ZM121.713 382.702C114.623 376.102 97.9185 377.011 92.8939 386.083C89.567 392.09 89.6224 406.98 92.3386 413.202C97.1979 424.335 117.773 424.609 124.103 414.283C128.021 407.891 127.559 388.145 121.713 382.702Z" fill="#788998"/>
<path d="M207.35 435.848C205.568 435.298 206.352 430.69 206.217 429.082C203.271 429.905 201.166 432.312 198.333 433.601C186.258 439.093 170.425 436.862 161.057 427.229C159.38 425.505 155.07 417.933 155.07 415.914V365.515C155.07 365.435 156.119 364.387 156.199 364.387H171.995C172.075 364.387 173.124 365.435 173.124 365.515V410.648C173.124 412.582 177.807 418.06 179.626 419.191C186.572 423.507 200.714 422.151 204.351 414.043C204.737 413.181 206.221 408.207 206.221 407.639V365.515C206.221 365.435 207.27 364.387 207.35 364.387H222.394C222.474 364.387 223.523 365.435 223.523 365.515V434.719C223.523 434.799 222.474 435.848 222.394 435.848C219.268 435.848 209.418 436.486 207.35 435.848Z" fill="#788998"/>
<path d="M403.018 201.63C400.109 205.887 393.321 212.522 389.4 216.231C387.883 217.666 386.378 219.021 384.443 219.627L396.365 270.967C396.481 273.119 395.42 278.683 392.857 277.042C391.674 276.285 382.668 254.791 381.169 251.496C380.002 248.929 379.015 246.791 377.831 244.303C376.967 242.486 373.374 232.755 372.085 232.761C365.87 237.851 360.539 243.964 354.56 249.253C352.759 250.846 343.186 257.561 342.758 258.327C340.67 262.067 347.348 275.97 341.976 277.119C340.78 277.375 340.436 276.129 339.964 275.4C337.661 271.841 335.45 265.271 332.622 262.433C329.39 259.188 322.411 256.949 318.379 254.486C318.517 247.746 329.942 253.199 334.514 253.097C337.906 253.021 341.036 246.357 343.155 243.86C349.251 236.678 356.362 230.346 362.675 223.328L318.766 202.571L317.564 201.531C319.215 199.445 321.976 198.687 324.61 198.928L374.194 210.814C382.285 204.188 387.305 194.65 397.002 189.964C411.005 183.197 408.76 193.226 403.018 201.63Z" fill="#3D89BC"/>
<path d="M56.5292 343.325C56.285 344.063 57.2815 344.956 57.2815 345.205V364.387H68.1887C69.8953 364.387 69.8953 376.422 68.1887 376.422H57.2815V419.675C57.2815 422.643 69.317 420.565 69.317 422.684V434.72C69.317 434.799 68.2685 435.848 68.1887 435.848H56.9054C56.5431 435.848 52.1526 434.816 51.3996 434.584C43.2758 432.079 39.0979 425.725 38.4488 417.446C37.4149 404.26 39.2711 389.744 38.4795 376.419C36.2062 376.256 30.46 377.249 30.1506 374.569C29.1985 366.323 29.2391 363.001 38.4759 364.387V344.453C38.4759 344.373 39.5245 343.325 39.6043 343.325H56.5292Z" fill="#788998"/>
<path d="M256.243 364.387C258.025 364.936 257.241 369.545 257.376 371.153C260.87 369.688 263.433 366.822 267.172 365.537C276.891 362.197 288.877 363.091 297.242 369.292C297.434 370.126 286.361 381.322 285.412 381.581C283.29 382.16 278.586 379.087 275.738 378.744C270.011 378.054 262.99 380.274 259.631 385.075C259.283 385.573 257.372 388.615 257.372 388.834V434.719C257.372 434.799 256.323 435.848 256.243 435.848H240.447C240.367 435.848 239.318 434.799 239.318 434.719V365.515C239.318 365.435 240.367 364.387 240.447 364.387C243.701 364.387 254.095 363.724 256.243 364.387Z" fill="#788998"/>
</svg>
